<?xml version="1.0" encoding="utf-8"?>
<!-- Generator: Adobe Illustrator 23.1.0, SVG Export Plug-In . SVG Version: 6.00 Build 0)  -->
<svg version="1.1" id="Calque_1" xmlns="http://www.w3.org/2000/svg" xmlns:xlink="http://www.w3.org/1999/xlink" x="0px" y="0px"
	 viewBox="0 0 241.9 96.9" style="enable-background:new 0 0 241.9 96.9;" xml:space="preserve">
<style type="text/css">
	.st0{fill:#EA5152;}
	.st1{opacity:0.75;fill:#C92321;}
	.st2{opacity:0.9;fill:#C92321;}
	.st3{fill:#C92321;}
	.st4{opacity:0.5;fill:#C92321;}
	.st5{fill:#00A79D;}
	.st6{fill:#4E5967;}
</style>
<g>
	<g>
		<g>
			<path class="st0" d="M72.1,66.6c-4.9,5.7-11.3,9.1-12.1,9.5h0c-0.8-0.4-7.2-3.8-12.1-9.5c-7.1-8.3-2.1-18.1,4.8-18.5
				c0.1,0,0.2,0,0.4,0c2.3,0,4.7,1,6.9,3.4c0,0,0.1,0,0.1-0.1c0,0,0,0,0.1,0.1c2.2-2.4,4.6-3.4,6.9-3.4c1.6,0,3.1,0.5,4.4,1.4
				L59.9,64.1l-8-4l8.3,7.2l13.3-15.6C76.2,55.5,76.6,61.3,72.1,66.6z"/>
			<g>
				<path class="st1" d="M85.4,33.2c-0.1,0.6-0.1,1.2-0.3,1.7c-0.4,1.7-1.1,3.2-1.9,4.7c1.7,2.1,2.8,4.7,3.4,7.5
					c1.4-2.5,2.3-5.1,2-7.8c0-0.3-0.1-0.6-0.2-0.9c-0.4-0.9-0.8-1.8-1.3-2.7C86.7,34.8,86.1,34,85.4,33.2z"/>
				<path class="st2" d="M73.5,32.8c0,0.4,0.1,0.9,0.1,1.3c2.3,0.1,4.6,1,6.7,2.5c0.4-0.9,0.6-1.7,0.8-2.6c0.5-2.5-0.3-4.4-2.1-5.8
					c-2-0.9-4.1-1.4-6.3-1.5c-0.5,0-1,0-1.4,0.1C72.5,28.6,73.2,30.8,73.5,32.8z"/>
				<path class="st3" d="M34.1,50.6c0.3,3.2,1.3,6.3,3.1,9.2c1.7,2.8,4.1,5.4,6.5,8c4.9,4.8,10.4,9.1,16.3,12.7
					c7.8-3.8,12.3-6.6,17.8-10.8c-9.9,9.5-16.1,11.9-17.6,13.2l-0.2,0h-0.2l-0.3-0.1c-6.7-3.1-12.9-7.1-18.5-12.2
					c-2.7-2.5-5.4-5.1-7.6-8.4c-2.2-3.2-3.7-7-4.3-11c-1.2-8,2.2-17,9.7-21.5c1.9-1.1,4-1.9,6.2-2.3c2.3-0.4,4.6-0.2,6.7,0.3
					c3,0.7,5.8,2.2,8.1,4c1.5-1.2,3.2-2.3,5-3.1c2,1,3.3,2.6,3.9,5.1c0.1,0.4,0.1,0.9,0.2,1.4c-2.2,0.9-4.4,2.4-6.2,4.3l-2.9,2.9
					l-2.5-2.8c-4.3-4.8-10-7.2-15.3-4.3C36.6,37.7,33.4,44.3,34.1,50.6z"/>
				<path class="st4" d="M90,46.5c0,1.7-0.2,3.3-0.5,4.9c-0.6,2.4-1.4,4.6-2.5,6.7c-0.6,0.1-1.1,0.2-1.7,0.4
					c1.1-2.4,1.7-4.9,1.8-7.4V51C88.2,49.6,89.2,48.1,90,46.5z"/>
			</g>
		</g>
		<path class="st5" d="M36.9,14.2c-4.4,1.8-8.3,4.5-11.7,7.9c-3.4,3.3-6.1,7.3-7.9,11.7l-0.2-0.1c0.1-2.5,0.9-5,2-7.2
			c1.1-2.3,2.7-4.3,4.4-6.1c1.8-1.7,3.8-3.3,6.1-4.4c2.2-1.1,4.7-1.9,7.2-2L36.9,14.2z"/>
		<path class="st5" d="M36.9,20.2c-2.8,1.6-5.4,3.6-7.7,5.9c-2.3,2.3-4.3,4.9-5.9,7.7l-0.2-0.1c0.1-1.8,0.6-3.5,1.4-5.1
			c0.8-1.6,1.8-2.9,3-4.2c1.3-1.2,2.6-2.3,4.2-3c1.5-0.8,3.2-1.3,5.1-1.4L36.9,20.2z"/>
		<path class="st5" d="M36.9,26.8c-2.8,1.9-5.1,4.2-7,7l-0.2-0.1c-0.1-1.2,0.1-2.1,0.4-3c0.9-2.2,2.8-3.4,3.7-3.7
			c0.9-0.3,1.8-0.6,2.9-0.4L36.9,26.8z"/>
	</g>
	<g>
		<path class="st6" d="M120.3,44.7l-1.2,8.2c-2.1-2.3-4.5-3.4-7.2-3.4s-4,0.8-4,2.4c0,0.8,0.7,1.7,2.2,2.6c1.1,0.7,2.9,1.8,5.1,3.2
			c2.5,1.7,3.8,4.1,3.8,7.2c0,3.8-1.4,6.7-4.3,8.8c-2.6,1.9-5.9,2.8-9.8,2.8c-4.4,0-7.6-0.9-9.8-2.7l1.3-9c2.2,3,4.8,4.4,8,4.4
			c2.9,0,4.4-0.9,4.4-2.8c0-1-0.8-2-2.4-2.9c-1-0.6-2.5-1.4-4.4-2.5c-2.9-1.8-4.4-4.2-4.4-7.5c0-3.7,1.5-6.6,4.4-8.7
			c2.6-1.9,5.8-2.8,9.7-2.8C115.4,42.1,118.3,43,120.3,44.7z"/>
		<path class="st6" d="M141.6,51.6l-0.9,6.5h-6.5l-1.2,8.4c-0.1,0.2-0.1,0.4-0.1,0.6c0,1.4,0.8,2.1,2.4,2.1c1.5,0,3-0.6,4.5-1.7
			l-1,6.6c-2.2,1.3-4.7,1.9-7.6,1.9c-5,0-7.5-2.2-7.5-6.6c0-0.5,0-1.1,0.1-1.7l1.3-9.7h-2.9l0.5-3.6l13.2-10l-1,7.1H141.6z"/>
		<path class="st6" d="M166.8,69.3l-0.7,5.4c-1.7,1-3.6,1.4-5.8,1.4c-2.7,0-4.2-0.9-4.4-2.8c-1.9,1.9-4.3,2.8-7.4,2.8
			c-1.9,0-3.5-0.5-4.7-1.6c-1.2-1.1-1.8-2.5-1.8-4.4c0-3.3,1.4-5.8,4.2-7.5c2.3-1.4,5.2-2,8.8-2c0.5,0,1.1,0,1.6,0
			c0.1-0.5,0.1-0.8,0.1-0.9c0-1.3-1.1-1.9-3.2-1.9c-2.9,0-5.7,0.9-8.2,2.6l1-6.9c3.1-1.6,6.6-2.4,10.4-2.4c6,0,9,2.4,9,7.1
			c0,0.6-0.1,1.3-0.2,2l-1.2,8.2c0,0.1,0,0.2,0,0.2c0,0.7,0.3,1.1,1,1.1C165.7,69.8,166.2,69.6,166.8,69.3z M155.8,65.4
			c-0.2,0-0.5,0-0.7,0c-1,0-1.9,0.2-2.7,0.6c-0.9,0.5-1.3,1.3-1.3,2.2c0,1.1,0.6,1.7,1.9,1.7c1,0,1.8-0.4,2.4-1.2L155.8,65.4z"/>
		<path class="st6" d="M208.5,57.4c0,0.8-0.1,1.7-0.2,2.7l-1.5,10.3c-0.1,0.8-0.2,1.6-0.2,2.4c0,1.1,0.1,2.1,0.4,2.8h-10l2.2-15
			c0-0.2,0.1-0.4,0.1-0.6c0-1.3-0.6-1.9-1.7-1.9c-1.3,0-2.4,0.7-3.2,2.2l-2.2,15.4h-8.8l2.2-15c0-0.2,0-0.4,0-0.6
			c0-1.3-0.6-1.9-1.7-1.9c-1.3,0-2.4,0.7-3.2,2.2l-2.2,15.4h-9.1l2.3-16.7c0.2-1,0.3-1.8,0.3-2.5c0-2-0.8-3.2-2.3-3.6l0.1-1.3h11
			l0,3.1c2.1-2.3,4.6-3.5,7.6-3.5c3.2,0,5.2,1.2,6,3.5c2-2.3,4.6-3.5,7.8-3.5C206.4,51.1,208.5,53.2,208.5,57.4z"/>
		<path class="st6" d="M224.2,51.6l-2.6,18.8c-0.1,0.9-0.2,1.7-0.2,2.5c0,1.1,0.1,2,0.4,2.8h-10l2.4-16.7c0.2-1,0.2-1.8,0.2-2.5
			c0-2-0.8-3.2-2.3-3.6l0.2-1.3H224.2z M224.8,45.5c0,1.3-0.5,2.4-1.6,3.3s-2.2,1.4-3.5,1.4c-1.2,0-2.2-0.4-3-1.1
			c-0.9-0.7-1.3-1.7-1.3-2.8c0-1.3,0.5-2.4,1.6-3.4c1-0.9,2.2-1.4,3.5-1.4c1.2,0,2.2,0.4,3,1.1S224.8,44.4,224.8,45.5z"/>
	</g>
</g>
</svg>
