<?xml version="1.0" encoding="utf-8"?>
<!-- Generator: Adobe Illustrator 24.0.0, SVG Export Plug-In . SVG Version: 6.00 Build 0)  -->
<svg version="1.1" id="Calque_1" xmlns="http://www.w3.org/2000/svg" xmlns:xlink="http://www.w3.org/1999/xlink" x="0px" y="0px"
	 viewBox="0 0 216 190" style="enable-background:new 0 0 216 190;" xml:space="preserve">
<style type="text/css">
	.st0{fill:#FFFFFF;}
	.st1{opacity:0.75;fill:#FFFFFF;}
	.st2{opacity:0.9;fill:#FFFFFF;}
	.st3{opacity:0.5;fill:#FFFFFF;}
</style>
<g>
	<g>
		<path class="st0" d="M65.3,127.67l-16.79,36.01H35.73l-5.31-27.04c-0.41-2.09-0.82-3.59-1.24-4.48c-0.72-1.65-1.79-2.68-3.19-3.09
			l0.21-1.39h14.12l3.5,23.39c0.1,0.69,0.17,1.63,0.21,2.83h0.31c0.34-1.27,0.65-2.22,0.93-2.83l9.68-23.39H65.3z"/>
		<path class="st0" d="M79.11,136.99l-2.93,20.92c-0.14,0.96-0.21,1.87-0.21,2.73c0,1.24,0.14,2.27,0.42,3.09H65.21l2.66-18.55
			c0.18-1.1,0.27-2.03,0.27-2.78c0-2.26-0.86-3.61-2.58-4.02l0.21-1.39H79.11z M79.83,130.29c0,1.44-0.57,2.67-1.73,3.68
			c-1.15,1.01-2.44,1.52-3.89,1.52c-1.31,0-2.43-0.41-3.37-1.24c-0.95-0.83-1.42-1.87-1.42-3.14c0-1.48,0.57-2.72,1.72-3.73
			c1.15-1.01,2.47-1.52,3.94-1.52c1.3,0,2.42,0.41,3.35,1.24C79.36,127.93,79.83,128.99,79.83,130.29z"/>
		<path class="st0" d="M102.29,136.99l-1.02,7.21h-7.23l-1.29,9.33c-0.06,0.24-0.09,0.46-0.09,0.67c0,1.58,0.89,2.37,2.68,2.37
			c1.61,0,3.3-0.64,5.05-1.91l-1.08,7.37c-2.41,1.44-5.22,2.16-8.45,2.16c-5.56,0-8.34-2.44-8.34-7.32c0-0.58,0.05-1.2,0.16-1.85
			l1.49-10.82h-3.19l0.57-4.02l14.64-11.08l-1.09,7.89H102.29z"/>
		<path class="st0" d="M114.86,132.05c0,2.75-0.89,5.24-2.68,7.47c-1.79,2.23-4.02,3.66-6.7,4.28l-1.55-3.12
			c2.85-0.72,4.55-2.15,5.1-4.3c-0.24,0-0.47,0-0.67,0c-2.2,0-3.3-1.19-3.3-3.56c0-1.44,0.54-2.74,1.62-3.89
			c1.08-1.15,2.33-1.72,3.74-1.72C113.38,127.2,114.86,128.82,114.86,132.05z"/>
		<path class="st0" d="M155.04,127.72L152,149.1c-0.75,5.19-2.9,9.1-6.44,11.75c-3.33,2.47-7.71,3.71-13.13,3.71
			c-4.53,0-8.14-0.94-10.82-2.83c-3.06-2.17-4.58-5.41-4.58-9.74c0-0.93,0.07-1.89,0.21-2.88l1.8-12.41
			c0.17-1.2,0.26-2.22,0.26-3.04c0-2.51-0.83-4.04-2.47-4.59l0.21-1.34h14.32l-2.99,21.54c-0.1,0.62-0.16,1.18-0.16,1.7
			c0,3.64,1.82,5.46,5.46,5.46c2.09,0,3.79-0.69,5.1-2.06c1.2-1.27,1.96-2.97,2.27-5.1l2.99-21.54H155.04z"/>
		<path class="st0" d="M191,137.61c0,4.02-1.43,7.24-4.28,9.68c-2.68,2.37-6.05,3.56-10.1,3.56h-5.15l-1.85,12.88h-11.03l3.81-27.04
			c0.17-1.2,0.26-2.22,0.26-3.04c0-2.51-0.82-4.04-2.47-4.59l0.21-1.34h19.53c3.19,0,5.8,0.84,7.83,2.53
			C189.91,132.03,191,134.48,191,137.61z M179.71,138.54c0-2.3-1.29-3.45-3.86-3.45h-2.11l-1.24,8.55h2.16
			c1.51,0,2.73-0.46,3.66-1.39C179.25,141.32,179.71,140.08,179.71,138.54z"/>
	</g>
	<g>
		<g>
			<path class="st0" d="M122.88,85.01c-5.41,6.36-12.61,10.15-13.48,10.58h-0.03c-0.87-0.43-8.06-4.22-13.48-10.58
				c-7.93-9.28-2.38-20.19,5.3-20.62c0.13-0.03,0.27-0.03,0.41-0.03c2.52,0.03,5.2,1.16,7.69,3.79c0.03-0.03,0.08-0.05,0.11-0.08
				c0,0.03,0.05,0.05,0.08,0.08c2.49-2.62,5.17-3.76,7.69-3.79c1.79,0.03,3.44,0.6,4.87,1.6l-12.66,16.27l-8.86-4.41l9.25,8.04
				l14.83-17.32C127.51,72.65,127.89,79.14,122.88,85.01z"/>
			<g>
				<path class="st1" d="M137.78,47.81c-0.06,0.65-0.15,1.29-0.3,1.89c-0.44,1.89-1.18,3.6-2.06,5.2c1.84,2.33,3.16,5.2,3.76,8.32
					c1.6-2.75,2.58-5.71,2.21-8.63c-0.04-0.33-0.11-0.65-0.18-0.97c-0.41-1.02-0.87-2.03-1.44-3
					C139.21,49.63,138.52,48.7,137.78,47.81z"/>
				<path class="st2" d="M124.48,47.37c0.05,0.48,0.07,0.96,0.1,1.43c2.53,0.11,5.13,1.1,7.43,2.78c0.39-0.97,0.69-1.93,0.86-2.88
					c0.55-2.83-0.33-4.91-2.29-6.43c-2.17-0.96-4.55-1.55-7.04-1.64c-0.54,0-1.07,0.06-1.6,0.09
					C123.36,42.75,124.2,45.11,124.48,47.37z"/>
				<path class="st0" d="M80.64,67.15c0.3,3.55,1.49,7.06,3.41,10.23c1.87,3.14,4.55,6.06,7.28,8.85
					c5.44,5.33,11.61,10.12,18.13,14.18c8.68-4.24,13.74-7.33,19.79-12.02c-10.99,10.62-17.93,13.29-19.6,14.7l-0.24,0.03h-0.27
					l-0.33-0.16c-7.47-3.44-14.4-7.96-20.54-13.53c-3-2.79-6.01-5.68-8.47-9.36c-2.44-3.57-4.17-7.79-4.79-12.26
					c-1.3-8.88,2.41-18.89,10.8-23.98c2.08-1.24,4.41-2.14,6.87-2.57c2.52-0.43,5.09-0.27,7.47,0.3c3.38,0.78,6.44,2.46,9.01,4.47
					c1.68-1.35,3.52-2.52,5.52-3.41c2.22,1.11,3.68,2.9,4.3,5.63c0.11,0.49,0.11,1.03,0.19,1.54c-2.49,1-4.87,2.68-6.9,4.76
					l-3.19,3.22l-2.81-3.17c-4.76-5.36-11.18-8.01-17.05-4.76C83.4,52.81,79.91,60.14,80.64,67.15z"/>
				<path class="st3" d="M142.88,62.63c-0.03,1.87-0.22,3.71-0.6,5.47c-0.62,2.62-1.57,5.11-2.79,7.41
					c-0.62,0.11-1.27,0.27-1.92,0.49c1.19-2.65,1.89-5.47,1.98-8.28v-0.14C140.79,66.07,141.96,64.42,142.88,62.63z"/>
			</g>
		</g>
		<path class="st0" d="M83.71,26.7c-4.86,2.04-9.29,5.05-12.97,8.8c-3.75,3.68-6.76,8.11-8.8,12.97l-0.25-0.1
			c0.12-2.82,0.98-5.52,2.23-8.01c1.23-2.51,2.95-4.76,4.9-6.77c2.01-1.95,4.26-3.67,6.77-4.9c2.49-1.25,5.19-2.11,8-2.24
			L83.71,26.7z"/>
		<path class="st0" d="M83.73,33.35c-3.13,1.81-6.02,4.03-8.53,6.61c-2.58,2.51-4.79,5.4-6.61,8.53l-0.24-0.13
			c0.06-2.06,0.68-3.92,1.55-5.64c0.85-1.74,2.05-3.27,3.38-4.67c1.4-1.33,2.93-2.53,4.67-3.38c1.72-0.87,3.59-1.49,5.64-1.55
			L83.73,33.35z"/>
		<path class="st0" d="M83.74,40.73c-3.06,2.08-5.66,4.66-7.77,7.77l-0.22-0.16c-0.16-1.28,0.08-2.33,0.45-3.29
			c1-2.47,3.12-3.73,4.09-4.08c0.95-0.37,2-0.61,3.28-0.46L83.74,40.73z"/>
	</g>
</g>
</svg>
